<svg width="24" height="24" viewBox="0 0 24 24" fill="none" xmlns="http://www.w3.org/2000/svg">
<path d="M20.5405 18.1739L16.8335 14.4669C17.5994 13.3125 18.0478 11.9303 18.0478 10.4444C18.0478 6.41831 14.7723 3.14282 10.7462 3.14282C6.72007 3.14282 3.44458 6.41831 3.44458 10.4444C3.44458 14.4705 6.72007 17.746 10.7462 17.746C12.232 17.746 13.6142 17.2977 14.7686 16.5317L18.4756 20.2388C19.0452 20.809 19.971 20.809 20.5405 20.2388C21.1108 19.6685 21.1108 18.7441 20.5405 18.1739ZM5.63506 10.4444C5.63506 7.626 7.92776 5.3333 10.7462 5.3333C13.5646 5.3333 15.8573 7.626 15.8573 10.4444C15.8573 13.2628 13.5646 15.5555 10.7462 15.5555C7.92776 15.5555 5.63506 13.2628 5.63506 10.4444Z" fill="#737791"/>
</svg>
